<?xml version="1.0" encoding="UTF-8"?>
<svg xmlns="http://www.w3.org/2000/svg" xmlns:xlink="http://www.w3.org/1999/xlink" version="1.1" id="Capa_1" x="0px" y="0px" viewBox="0 0 512 512" style="enable-background:new 0 0 512 512;" xml:space="preserve" width="512" height="512" class=""><g><circle style="fill:#FEDC00" cx="256" cy="256" r="256" data-original="#FFD93B" class="" data-old_color="#FFD93B"></circle><path style="fill:#FEDC00" d="M512,256c0,141.44-114.64,256-256,256c-80.48,0-152.32-37.12-199.28-95.28  c43.92,35.52,99.84,56.72,160.72,56.72c141.36,0,256-114.56,256-256c0-60.88-21.2-116.8-56.72-160.72  C474.8,103.68,512,175.52,512,256z" data-original="#F4C534" class="" data-old_color="#F4C534"></path><g>
	<path style="fill:#FFFFFF" d="M370.56,344.4c0,7.696-6.224,13.92-13.92,13.92H155.344c-7.616,0-13.92-6.224-13.92-13.92   s6.304-13.92,13.92-13.92H356.64C364.352,330.496,370.56,336.704,370.56,344.4z" data-original="#3E4347" class="" data-old_color="#3E4347"></path>
	<circle style="fill:#FFFFFF" cx="174.512" cy="207.088" r="38.144" data-original="#3E4347" class="" data-old_color="#3E4347"></circle>
</g><ellipse transform="matrix(-0.597 -0.8023 0.8023 -0.597 150.8425 458.814)" style="fill:#FFFFFF" cx="190.667" cy="191.518" rx="10.016" ry="6.48" data-original="#5A5F63" class="active-path" data-old_color="#5A5F63"></ellipse><circle style="fill:#FFFFFF" cx="337.44" cy="207.088" r="38.144" data-original="#3E4347" class="" data-old_color="#3E4347"></circle><ellipse transform="matrix(-0.597 -0.8022 0.8022 -0.597 411.0304 589.5384)" style="fill:#FFFFFF" cx="353.586" cy="191.533" rx="10.016" ry="6.48" data-original="#5A5F63" class="active-path" data-old_color="#5A5F63"></ellipse></g> </svg>
